<?xml version="1.0" encoding="utf-8"?>
<!-- Generator: Adobe Illustrator 14.0.0, SVG Export Plug-In . SVG Version: 6.00 Build 43363)  -->
<!DOCTYPE svg PUBLIC "-//W3C//DTD SVG 1.1//EN" "http://www.w3.org/Graphics/SVG/1.1/DTD/svg11.dtd">
<svg version="1.1" id="Capa_1" xmlns="http://www.w3.org/2000/svg" xmlns:xlink="http://www.w3.org/1999/xlink" x="0px" y="0px"
	 width="100px" height="100px" viewBox="0 0 100 100" enable-background="new 0 0 100 100" xml:space="preserve">
<g>
	<path d="M49.241,7.885c11.081,0,20.635,13.168,29.206,40.258c3.684,11.642,6.323,23.154,7.818,30.341
		C92.435,70.64,96.125,60.754,96.125,50c0-25.474-20.65-46.125-46.125-46.125C24.526,3.875,3.875,24.526,3.875,50
		c0,10.684,3.643,20.512,9.74,28.331c1.356-7.203,3.745-18.589,7.154-30.108C28.802,21.08,38.115,7.885,49.241,7.885z"/>
	<path d="M49.241,16.885c-2.299,0-10.521,2.438-19.82,33.816c-4.585,15.474-7.34,31.159-8.052,35.448
		c7.867,6.239,17.81,9.976,28.631,9.976c10.812,0,20.745-3.729,28.609-9.958c-0.821-4.392-3.891-19.993-8.767-35.385
		C59.878,19.329,51.555,16.885,49.241,16.885z M48.5,59.25c-5.04,0-9.125-4.252-9.125-9.5c0-5.247,4.085-9.5,9.125-9.5
		c5.04,0,9.125,4.253,9.125,9.5C57.625,54.998,53.54,59.25,48.5,59.25z"/>
</g>
</svg>
