<?xml version="1.0" encoding="utf-8"?>
<!-- Generator: Adobe Illustrator 14.0.0, SVG Export Plug-In . SVG Version: 6.00 Build 43363)  -->
<!DOCTYPE svg PUBLIC "-//W3C//DTD SVG 1.1//EN" "http://www.w3.org/Graphics/SVG/1.1/DTD/svg11.dtd">
<svg version="1.1" id="Capa_1" xmlns="http://www.w3.org/2000/svg" xmlns:xlink="http://www.w3.org/1999/xlink" x="0px" y="0px"
	 width="100px" height="100px" viewBox="0 0 100 100" enable-background="new 0 0 100 100" xml:space="preserve">
<path fill="none" stroke="#000000" stroke-width="0.9343" d="M-5.861,29.351"/>
<path fill="none" stroke="#000000" stroke-width="4" stroke-linecap="round" stroke-linejoin="round" d="M68.698,74.746
	C78.608,57.271,72.475,35.072,55,25.163c-13.98-7.927-31.738-3.021-39.666,10.958c-6.342,11.183-2.417,25.391,8.767,31.732
	c8.946,5.074,20.312,1.934,25.385-7.014c4.058-7.158,1.548-16.25-5.609-20.308c-5.727-3.247-13.001-1.238-16.249,4.489
	c-2.597,4.581-0.989,10.401,3.591,12.999c3.665,2.076,8.321,0.791,10.399-2.875c1.663-2.932,0.634-6.656-2.298-8.318
	c-2.345-1.33-5.325-0.506-6.654,1.838"/>
<polyline fill="none" stroke="#000000" stroke-width="4" stroke-linecap="round" stroke-linejoin="round" points="9.203,82.27 
	87.22,82.216 87.22,45.372 95.877,45.425 "/>
<line fill="none" stroke="#000000" stroke-width="4" stroke-linecap="round" stroke-linejoin="round" x1="87.22" y1="51.54" x2="95.823" y2="51.54"/>
<path fill="none" stroke="#000000" stroke-width="2.5955" stroke-linecap="round" stroke-linejoin="round" d="M84.688,56.666"/>
</svg>
